<svg id="Calque_1" data-name="Calque 1" xmlns="http://www.w3.org/2000/svg" viewBox="0 0 150.38 150.38"><defs><style>.cls-1{fill:#1d1d1b;}.cls-2{fill:#f6f6f6;}.cls-3{fill:#dddedf;}.cls-4{fill:#ebeced;}.cls-5{fill:#f9fafa;}.cls-6{fill:#fafafb;}.cls-7{fill:#615f60;}.cls-8{fill:#7a787a;}.cls-9{fill:#797778;}.cls-10{fill:#828283;}.cls-11{fill:#7f7e7f;}.cls-12{fill:#4b4749;}.cls-13{fill:#7c797b;}.cls-14{fill:#5b595a;}.cls-15{fill:#8b8a8a;}.cls-16{fill:#888789;}.cls-17{fill:#8e8c8c;}.cls-18{fill:#878587;}.cls-19{fill:#4a4748;}.cls-20{fill:#6a6768;}.cls-21{fill:#6b6869;}.cls-22{fill:#747272;}.cls-23{fill:#929191;}.cls-24{fill:#5e5c5d;}.cls-25{fill:#696667;}.cls-26{fill:#696768;}.cls-27{fill:#8c8a8b;}.cls-28{fill:#5d5b5c;}.cls-29{fill:#817f80;}.cls-30{fill:#686566;}.cls-31{fill:#6a6869;}.cls-32{fill:#6e6c6d;}.cls-33{fill:#7c7a7a;}.cls-34{fill:#595656;}.cls-35{fill:#8f8d8e;}.cls-36{fill:#8f8d8d;}.cls-37{fill:#797677;}.cls-38{fill:#848484;}.cls-39{fill:#555253;}.cls-40{fill:#6d6a6b;}.cls-41{fill:#4d4a4b;}.cls-42{fill:#5b5959;}.cls-43{fill:#6e6b6c;}.cls-44{fill:#524f50;}.cls-45{fill:#6d6b6c;}.cls-46{fill:#6e6c6c;}.cls-47{fill:#605e5f;}.cls-48{fill:#595758;}.cls-49{fill:#686667;}.cls-50{fill:#676466;}.cls-51{fill:#626161;}.cls-52{fill:#605d5e;}.cls-53{fill:#686666;}.cls-54{fill:#474244;}.cls-55{fill:#636162;}.cls-56{fill:#a7a5a6;}.cls-57{fill:#636061;}.cls-58{fill:#585556;}.cls-59{fill:#5a5859;}.cls-60{fill:#646262;}.cls-61{fill:#5f5d5d;}.cls-62{fill:#6c6a6b;}.cls-63{fill:#454142;}.cls-64{fill:#656364;}.cls-65{fill:#6f6d6e;}.cls-66{fill:#646061;}.cls-67{fill:#e5e6e7;}.cls-68{fill:#7b797b;}.cls-69{fill:#6f6d6d;}.cls-70{fill:#9d9a9a;}.cls-71{fill:#999899;}.cls-72{fill:#9f9d9d;}.cls-73{fill:#9a9a9a;}.cls-74{fill:#6f6c6d;}.cls-75{fill:#726f70;}.cls-76{fill:#716f70;}.cls-77{fill:#767273;}.cls-78{fill:#615e5f;}.cls-79{fill:#848384;}.cls-80{fill:#6c6a6a;}.cls-81{fill:#7e7d7e;}.cls-82{fill:#727071;}.cls-83{fill:#625f61;}.cls-84{fill:#5b5859;}.cls-85{fill:#e8e9ea;}.cls-86{fill:#e4e4e4;}.cls-87{fill:#fbfbfc;}.cls-88{fill:#ebebec;}.cls-89{fill:#eceded;}.cls-90{fill:#fbfbfb;}.cls-91{fill:#f8f7f7;}.cls-92{fill:#fcfcfc;}.cls-93{fill:#787677;}.cls-94{fill:#6b6969;}.cls-95{fill:#706e6e;}.cls-96{fill:#868485;}.cls-97{fill:#555354;}.cls-98{fill:#625f60;}.cls-99{fill:#6c6b6b;}.cls-100{fill:#706e6f;}.cls-101{fill:#5a5758;}.cls-102{fill:#565354;}.cls-103{fill:#514e4f;}</style></defs><rect class="cls-1" width="150.38" height="150.38"/><path class="cls-2" d="M41.63,75a.66.66,0,0,1,0-.14c.29-.36.36-.84.63-1.21a24.67,24.67,0,0,1,2.81-3.93,22.34,22.34,0,0,1,5-4.23,14.39,14.39,0,0,1,4.62-2,.37.37,0,0,0,.27-.2h.27a12.78,12.78,0,0,1,3.55-.7,21.24,21.24,0,0,1,6.11.28c.4.07.78.2,1.17.28a1.26,1.26,0,0,1,.81.27c.32.16.7.06,1,.23.92.53,2,.65,2.87,1.36h0c.31.21.52,0,.75-.17a11.87,11.87,0,0,1,1.08-.52,20.88,20.88,0,0,1,12-1.53A10.47,10.47,0,0,1,86,63a22.48,22.48,0,0,1,5.73,2.33,18.83,18.83,0,0,1,2.18,1.46c.28.25.57.49.84.74a18.48,18.48,0,0,0,1.69,1.62,20.76,20.76,0,0,1,3.92,5.89c.05.11.12.21.17.31a19.68,19.68,0,0,1,1.35,5.26,23.7,23.7,0,0,1,.14,2.79,1.51,1.51,0,0,1-.13.76,1,1,0,0,1-.79.24c-1.24,0-2.48,0-3.72,0-1,0-1.16-.25-1.22-1.25a14,14,0,0,0-1.4-6,1.39,1.39,0,0,1-.36-.44,10,10,0,0,0-2.27-3.24,3,3,0,0,1-.76-.79,9,9,0,0,0-2.68-2,13.2,13.2,0,0,0-2.92-1.3,13.5,13.5,0,0,0-6.79-.5,10.33,10.33,0,0,0-1.75.3c-.29.12-1-.14-.55.62.19.24.41.43.61.66a22.45,22.45,0,0,1,3,5,1.69,1.69,0,0,1,.12.55,13.38,13.38,0,0,1,.52,3c.06.68-.14,1-.82,1-1.53,0-3.06,0-4.58,0-.74,0-.88-.23-.72-.94a6.49,6.49,0,0,0,.41-2.29,4.29,4.29,0,0,0-1.84-3.24,2.36,2.36,0,0,0-1.3-.55,6.89,6.89,0,0,0-2.43.19,3.08,3.08,0,0,0-1.06.67c-.31.21-.51.55-.85.73a4,4,0,0,0-.56,4.12c.35,1-.1,1.34-1,1.33-1.29,0-2.57,0-3.86,0-1,0-1.19-.3-1.17-1.26a15,15,0,0,1,.62-3.27,12.52,12.52,0,0,1,1.5-3c.7-.88,1.3-1.85,2.06-2.68.23-.25.19-.48-.19-.55a1.89,1.89,0,0,1-.41-.1c-.49-.26-1-.1-1.55-.25a11.72,11.72,0,0,0-4.72,0,8.43,8.43,0,0,0-2,.44,14.51,14.51,0,0,0-1.48.55,4.08,4.08,0,0,0-1.17.56,9.78,9.78,0,0,0-1.66,1,11.22,11.22,0,0,0-2,1.81,12,12,0,0,0-2.28,3c-.31.46-.52,1-.84,1.42a9.35,9.35,0,0,0-1.06,4V83.6c0,.53-.25.8-.78.81-1.24,0-2.48,0-3.71,0a.9.9,0,0,1-.89-.6,7.46,7.46,0,0,1-.46-3.14,12.19,12.19,0,0,1,.77-3.53l.14-.82C41.32,75.92,41.38,75.42,41.63,75Z"/><path class="cls-3" d="M40.32,80.61a7.8,7.8,0,0,0,.51,3.2.62.62,0,0,0,.64.41c1.24,0,2.48,0,3.73,0,.43,0,.58-.14.57-.58a24.48,24.48,0,0,1,0-2.57,10.84,10.84,0,0,1,1-3.47c0-.07.16-.09.24-.13a.3.3,0,0,1,.09.33,13.88,13.88,0,0,0-1,4.89,15.62,15.62,0,0,0,.53,5A9.73,9.73,0,0,0,48,90.92a15.45,15.45,0,0,0,4.4,4.74,14.32,14.32,0,0,0,6.47,2.46,22.86,22.86,0,0,0,4.68-.06c.48,0,.91-.25,1.39-.32s.68-.36.26-.8a17.22,17.22,0,0,1-3.06-4.64c-.12-.24-.51-.56,0-.84a1.24,1.24,0,0,1,.76.5,1.88,1.88,0,0,0,1.53.63H77.58A2.38,2.38,0,0,0,79.15,92c.18-.15.32-.36.57-.41.52.18.27.55.14.81a14.78,14.78,0,0,1-1.39,2.41c-.23.31-.44.62-.64,1s-.68.86-1,1.3c-.2.27-.26.44.15.55a16.2,16.2,0,0,0,5.72.49,17.12,17.12,0,0,0,3.42-.68A11.93,11.93,0,0,0,88,96.6a14.36,14.36,0,0,0,4.58-3.72,14.14,14.14,0,0,0,2.84-5.34,1.6,1.6,0,0,0,0-.49.83.83,0,0,1,.06-.21A5,5,0,0,0,95.83,85a14.77,14.77,0,0,0-1-7.23c-.12-.28-.3-.55-.07-.86a2.11,2.11,0,0,1,.72,1.25,17.7,17.7,0,0,1,.9,5.5c0,.56.42.55.81.55h4.63c.33.39.15.83.13,1.24a18.82,18.82,0,0,1-1.78,6.78,22,22,0,0,1-6,7.59,20.71,20.71,0,0,1-9.52,4.28c-.56.11-1.15-.08-1.69.16A29,29,0,0,1,77.2,104a24.13,24.13,0,0,1-3.74-1c-.6-.32-1.26-.5-1.83-.87s-1.2,0-1.76.27c-.87.49-1.85.72-2.75,1.13a5.2,5.2,0,0,0-1.67.5.28.28,0,0,1-.13,0,43.66,43.66,0,0,1-6.16.27c-1-.21-2.06-.22-3.08-.46a20,20,0,0,1-7.9-3.76,22.39,22.39,0,0,1-5.37-6,18.62,18.62,0,0,1-2-4.39,19.67,19.67,0,0,1-.74-3.47A19,19,0,0,1,40,81.18C40.06,81,40,80.68,40.32,80.61Z"/><path class="cls-4" d="M130.21,78.48c.12-.06.14-.17.16-.29,1-1.23,1.93-2.58,2.86-3.89.11-.26.44-.38.44-.71a5.29,5.29,0,0,0,.86-1c.15-.19.32-.5.56-.06a1.69,1.69,0,0,1-.39,1.26c-.24.37-.14.58.3.61a5.43,5.43,0,0,0,.57,0c3.13,0,6.25,0,9.38,0,.23,0,.48-.07.67.13a1.24,1.24,0,0,1,.08.63c0,2.87,0,5.73,0,8.6,0,.83-.11,1-.94,1-1.31,0-2.63,0-3.94,0-.89,0-1-.13-1-1,0-2.27,0-4.54,0-6.81,0-.29.11-.63-.21-.84-.52.26-.69.81-1.05,1.2-.2.21-.31.49-.51.7-2.8,3.89-5.65,7.75-8.42,11.68-.53.76-1.09,1.49-1.63,2.25a1.11,1.11,0,0,1-1,.49c-1,0-1.9,0-2.85,0a1.35,1.35,0,0,1-1.46-.76c-.86-1.23-1.75-2.44-2.64-3.65-.32-.42-.61-.87-.91-1.3-1.22-1.66-2.43-3.32-3.61-5-.27-.38-.58-.74-.87-1.11-.91-1.37-1.93-2.67-2.87-4-.16-.22-.29-.44-.57-.49-.22.25-.12.55-.12.83,0,2.65,0,5.3,0,8,0,1-.13,1.16-1.16,1.17s-2.1,0-3.15,0c-.87,0-1.16-.27-1.27-1.14a41.54,41.54,0,0,1-.34-5c-.05-3.84,0-7.69,0-11.53a1.56,1.56,0,0,1,.08-.71c.5,0,.4.36.41.6,0,1,.07,2,.15,3,0,.45.08.9.15,1.35.13.76.3.93,1.09.93,2.08,0,4.15,0,6.23,0h1.36c1,0,1,0,1.14-1,.31-.54.51-.09.66.12.59.83,1.23,1.62,1.8,2.47.42.62.85,1.24,1.32,1.82.65.73,1.13,1.59,1.73,2.36,1.19,1.72,2.43,3.4,3.67,5.09.51.7.57.69,1.1,0a3.83,3.83,0,0,1,.33-.46h0C127.6,82.09,129,80.36,130.21,78.48Z"/><path class="cls-3" d="M30.71,92.21v.29A25.67,25.67,0,0,1,32.07,95c1.11,2.34,2.32,4.63,3.46,7,.39,1.08.38,1.09-.82,1.1-1.44,0-2.87,0-4.3,0a1.35,1.35,0,0,1-1.47-.93c-.89-1.89-1.85-3.75-2.81-5.61a9.41,9.41,0,0,0-.42-.91c-.47-.58-.59-1.35-1.08-1.93-.24-.28-.56-.23-.87-.21-3.17.15-6.34,0-9.52.06-1.07,0-1.08,0-1.08,1.07,0,2.41,0,4.82,0,7.23,0,1.12-.18,1.3-1.27,1.31H8.24c-1,0-1.17-.13-1.17-1.15V64.82a3.47,3.47,0,0,1,0-.72c0-.2.14-.36.4-.25a1,1,0,0,1,.23.8c0,3.22,0,6.44,0,9.65,0,2.43,0,4.85,0,7.28s0,4.81,0,7.22c0,1.2,0,1.21,1.17,1.21,6.63,0,13.26,0,19.9,0a3.94,3.94,0,0,0,2.5-.87,8.07,8.07,0,0,1,2-1.43c.44,0,.37.28.16.51a10.85,10.85,0,0,1-1.32,1.39A15.23,15.23,0,0,1,30.44,91a.37.37,0,0,0-.18.53C30.38,91.76,30.44,92.05,30.71,92.21Z"/><path class="cls-5" d="M7.51,74.32l0-10.48.12-.08a3.63,3.63,0,0,1,.93,0h14a13.71,13.71,0,0,1,6.06,1.44c.25,0,.35.22.55.29A15.33,15.33,0,0,1,34,69.69a2.88,2.88,0,0,1,.71,1h.14c0,.63.69,1,.73,1.62.44.83.2,1.83.69,2.67.24.39-.21.45-.48.47-.71.06-1.43,0-2.14,0a2.81,2.81,0,0,0-.29,0c-1.34.15-2.54,0-3.22-1.39a1.32,1.32,0,0,0-.67-.62c-.4-.14-.58-.51-.86-.79a3.52,3.52,0,0,0-1.21-1,8.16,8.16,0,0,1-.66-.5c-.21-.2-.43-.39-.62-.61a8.16,8.16,0,0,0-2.68-.85c-3.18-.5-6.36-.09-9.54-.23-.3,0-.65-.08-.79.31a2.25,2.25,0,0,1-.08.24c-.16.94,0,1.9-.19,2.84-.27,1.48-.38,1.64-1.86,1.64H8.38A1.17,1.17,0,0,1,7.51,74.32Z"/><path class="cls-6" d="M145.56,74.46a1.42,1.42,0,0,1-.83.15H135c-.24,0-.57.14-.7-.18s0-.56.26-.81a1.49,1.49,0,0,0,.4-1.33c-.11-.41.26-.6.43-.86s.44-.65.67-1a7.85,7.85,0,0,1,.78-1l.29-.57a10.59,10.59,0,0,0,1.11-1.46c.76-1,1.44-2,2.18-3l.43-.51s.09-.12.17-.12a24.27,24.27,0,0,1,4.59,0,.92.92,0,0,1,.11.61v9.34C145.7,74,145.75,74.27,145.56,74.46Z"/><path class="cls-7" d="M7.48,63.84c-.51.09-.27.49-.27.74q0,11.53,0,23.08c0,4.8,0,9.6,0,14.4,0,.71.23.91.91.9,1.36,0,2.72,0,4.08,0,.58,0,.82-.18.81-.84,0-2.62,0-5.25,0-7.88,0-.63.2-.82.82-.82,3.44,0,6.88,0,10.32-.06a.68.68,0,0,1,.72.45.23.23,0,0,1,0,.31,1.18,1.18,0,0,0-1.61-.49,2,2,0,0,1-.7.06c-2.84,0-5.68,0-8.53,0-.48,0-.64.1-.63.62,0,2.6,0,5.2,0,7.8,0,.41,0,.81-.43,1a47.73,47.73,0,0,1-5.61,0c-.21,0-.3-.07-.28-.28a1.59,1.59,0,0,1-.06-.78q0-18.7,0-37.43a1.54,1.54,0,0,1,.06-.77l0-.16a.43.43,0,0,1,.4,0,.1.1,0,0,1,0,.12s0,.05,0,.05Z"/><path class="cls-8" d="M111.44,75.89q1.65,2.3,3.29,4.61a.2.2,0,0,1,0,.31,2.47,2.47,0,0,1-.4-.39c-.85-1.45-2-2.69-2.89-4.12-.4.16-.2.5-.2.74q0,12.52,0,25a1.72,1.72,0,0,1-.06.78v0a.68.68,0,0,1-.58.36c-1.83,0-3.66.08-5.49-.06-.22-.14-.11-.35-.11-.52q0-19.12,0-38.26c0-.21-.13-.47.12-.65a32.61,32.61,0,0,1,4.74,0c.24,0,.32.07.29.3s0,.15-.1.16a31.2,31.2,0,0,0-4.1-.11.54.54,0,0,0-.58.32c-.08,2.79-.22,5.58-.17,8.37,0,2-.06,4,0,5.94.26,7.64.11,15.28.16,22.92,0,.93,0,1,.95,1,1.15,0,2.3,0,3.44,0,.93,0,1-.09,1-1q0-5.44,0-10.89c0-1.12-.07-2.25,0-3.36.27-3.7.1-7.39.15-11.09C111,75.89,110.9,75.45,111.44,75.89Z"/><path class="cls-9" d="M145.56,63.85a41.45,41.45,0,0,0-4.73,0c-.2-.25.06-.14.13-.19a34.37,34.37,0,0,1,4.76,0c.25.18.11.44.11.65q0,19.14,0,38.26c0,.17.12.38-.1.52a59,59,0,0,1-6,0c-.24-.19-.11-.45-.11-.67V76.31c-.86.46-1,1.42-1.71,1.91a.24.24,0,0,1,0-.33l1.44-2c.36-.32.49-.17.49.25,0,.86,0,1.72,0,2.58,0,1.14-.05,2.29,0,3.44.28,6.46.11,12.93.16,19.39,0,1,.07,1.08,1.11,1.09h3.3c.94,0,1-.06,1-1,0-5.09-.13-10.18,0-15.26.23-7.23.05-14.46.13-21.69A1.48,1.48,0,0,0,145.56,63.85Z"/><path class="cls-10" d="M83,104.12c.8-.23,1.64-.19,2.46-.36A19.83,19.83,0,0,0,93.68,100a21.92,21.92,0,0,0,6.12-7.25,18.29,18.29,0,0,0,1.41-3.64,14.61,14.61,0,0,0,.63-4.92c0-1.24,0-2.48,0-3.72,0-.07.09-.08.14,0l0,.58c.12.33,0,.69.14,1v2.66c-.09.34,0,.7-.14,1a14.62,14.62,0,0,1-1.08,5.12,18.44,18.44,0,0,1-2.7,5,22.77,22.77,0,0,1-3.83,4,18.63,18.63,0,0,1-5.56,3.24,13.39,13.39,0,0,1-5.2,1.14C83.44,104.13,83.2,104.31,83,104.12Z"/><path class="cls-11" d="M40.92,89.78c.58,1.19,1,2.47,1.63,3.63a21.52,21.52,0,0,0,9.94,9.06A16.71,16.71,0,0,0,58.66,104a1.39,1.39,0,0,1,.33.1,4.4,4.4,0,0,1-1.77,0,29.07,29.07,0,0,1-3.28-.81,16.71,16.71,0,0,1-4.37-2.07,22,22,0,0,1-6.15-5.89,16.7,16.7,0,0,1-2.52-5.11A.4.4,0,0,1,40.92,89.78Z"/><path class="cls-12" d="M7.07,63.87q0,7.41,0,14.83,0,12.08,0,24.15c-.27-.17-.14-.43-.14-.65q0-18.84,0-37.7C6.94,64.29,6.79,64,7.07,63.87Z"/><path class="cls-13" d="M27.58,48c0,.61.05,1.22,0,1.83s.11.76.7.72c.82-.05,1.65,0,2.47,0s1.18.34,1,1.25c-.06.27,0,.53-.09.8a31.37,31.37,0,0,1-3.88.08.18.18,0,0,1-.19-.21c.38-.45.9-.31,1.38-.33s1,0,1.48,0c.29,0,.67,0,.66-.45s-.4-.42-.69-.44c-.59,0-1.17,0-1.76,0-1.43,0-1.67-.26-1.7-1.66,0-2.21.16-2.4,2.4-2.41.74,0,1.48,0,2.21,0,.39,0,1,.17,1-.48s-.6-.41-1-.42H26.5a2.54,2.54,0,0,1-.91,0c-.17-.13-.14-.29-.06-.45h0a73.85,73.85,0,0,1,7.44,0c.82.3.21,1,.35,1.43s-.11.63-.54.61c-1.4.2-2.81,0-4.22.1C28.23,47.93,27.88,47.78,27.58,48Z"/><path class="cls-14" d="M8.53,57.41c-.3.79-.95.5-1.49.45s-.73-.5-.73-1c0-2.68,0-5.35,0-8,0-.65-.17-.9-.81-.8a3.52,3.52,0,0,1-.65,0c-2.09,0-1.78-.31-1.52-2.24.16-.09.31-.13.43.07-.12,1.4,0,1.47,1.43,1.51S7,47.59,7,49.14c0,2.21,0,4.43,0,6.65a5.77,5.77,0,0,0,0,.83c0,.27.17.46.48.47A.49.49,0,0,0,8,56.6a5.81,5.81,0,0,0,0-.83c0-2.16,0-4.31,0-6.47,0-.45-.08-.94.31-1.3.14,0,.22,0,.23.16,0,2.85,0,5.69,0,8.54A1.09,1.09,0,0,1,8.53,57.41Z"/><path class="cls-15" d="M54.94,63.3c0,.42-.4.28-.6.35a21,21,0,0,0-10.19,7.41c-.66.85-1.21,1.78-1.82,2.68a.24.24,0,0,1,0-.31.71.71,0,0,1,.15-.52,23.83,23.83,0,0,1,5.23-6,16.39,16.39,0,0,1,5.08-3C53.5,63.7,54.21,63.47,54.94,63.3Z"/><path class="cls-16" d="M25.71,95.54a16.62,16.62,0,0,1,1.41,2.59c.77,1.44,1.48,2.92,2.18,4.39.17.36.43.32.71.32h5.08c.43,0,.86,0,.41-.58-.07-.1,0-.28-.06-.42a.1.1,0,0,1,.14,0c0,.26.22.37.31.56.14.42.13.81-.43.8-2,0-4.05.09-6.07-.06a4.06,4.06,0,0,1-1.07-1.86c-.78-1.69-1.72-3.29-2.48-5-.09-.19-.21-.37-.13-.59,0,0-.05-.07,0-.1S25.69,95.54,25.71,95.54Z"/><path class="cls-17" d="M20.92,45.8c.42-.38.93-.21,1.41-.21s.45.25.45.57c0,3.78,0,7.56,0,11.34,0,0-.08.08-.12.13-.52,0-1.11.44-1.54-.21,1.18-.23,1.24-1.06,1.22-2.06-.05-2.49,0-5,0-7.47a6.09,6.09,0,0,0,0-.74c0-.32.06-.76-.43-.77s-.44.43-.45.75c0,.89,0,1.79,0,2.68s-.25,1.35-1.24,1.49a16.11,16.11,0,0,1-4.6,0,1.22,1.22,0,0,1-1.18-1.38c.07-1.3-.26-2.63.22-3.92.53-.08.31.34.31.53,0,1.1,0,2.2,0,3.3,0,.34,0,.68.36.85a48.92,48.92,0,0,0,5.28-.1h0c.33-.37.17-.82.2-1.23C20.84,48.18,20.54,47,20.92,45.8Z"/><path class="cls-18" d="M138,77.89v.33c-.66,1-1.28,2-2,2.89S134.64,83,134,84c-1.28,1.78-2.62,3.52-3.86,5.34-.06.1-.18.15-.27.22a.13.13,0,0,1-.2,0c1-1.63,2.18-3.11,3.29-4.65C134.57,82.52,136.27,80.21,138,77.89Z"/><path class="cls-19" d="M111.16,102.86q0-13.11,0-26.22c0-.06-.31-.6.25-.34-.26.24-.13.54-.13.81q0,12.47,0,25C111.29,102.33,111.43,102.63,111.16,102.86Z"/><path class="cls-18" d="M119.48,77c-.76-.82-1.31-1.78-2-2.66a22.73,22.73,0,0,0-1.59-2.07l-.09,0a4.42,4.42,0,0,1-.53-.68l-.11-.15a5.73,5.73,0,0,0-.74-.89,12.51,12.51,0,0,1-2-3,.35.35,0,0,1,.14-.28A38,38,0,0,1,115,70.47c1.21,1.71,2.49,3.38,3.65,5.13.26.39.76.6.81,1.13A.23.23,0,0,1,119.48,77Z"/><path class="cls-20" d="M25.53,45.76l0,.44a1.91,1.91,0,0,1,.26,1.32c0,2.79,0,5.58,0,8.37,0,1.18.08,1.26,1.26,1.25,1.81,0,3.62.07,5.42-.06.6-.19.19-.9.61-1.17.58,1.52.29,1.94-1.26,1.91-1.91,0-3.81,0-5.72,0-.51,0-.8-.1-.79-.71,0-3.65,0-7.31,0-11C25.36,46,25.35,45.84,25.53,45.76Z"/><path class="cls-21" d="M84.63,62.86a36.32,36.32,0,0,0-3.91-.25,21.69,21.69,0,0,0-7.94,1.73,1.78,1.78,0,0,1-.33.09c-.09-.05-.09-.11,0-.17a24.32,24.32,0,0,1,5.2-1.61,46.93,46.93,0,0,1,5.15-.23,3.63,3.63,0,0,1,1.84.32c.05,0,.06,0,.05.08S84.65,62.86,84.63,62.86Z"/><path class="cls-22" d="M66,63.15a9.71,9.71,0,0,1-2.4-.33,21.07,21.07,0,0,0-7.87.44,3.44,3.44,0,0,1-.56,0c0-.25.15-.26.35-.32a24.42,24.42,0,0,1,7.71-.51A5.31,5.31,0,0,1,66,63.15Z"/><path class="cls-23" d="M100.4,75.33a23.72,23.72,0,0,0-2.53-4.25,22.81,22.81,0,0,0-2.46-2.74,2.41,2.41,0,0,1-.73-.76.17.17,0,0,1,.26,0,13.3,13.3,0,0,1,2.37,2.25,14.64,14.64,0,0,1,2.84,4.55c0,.17.3.25.26.48A.42.42,0,0,1,100.4,75.33Z"/><path class="cls-24" d="M83,104.12c.18.07.41-.05.57.13a21.9,21.9,0,0,1-4.58.07,16.26,16.26,0,0,1-3.22-.51,11.06,11.06,0,0,1-2.82-1,.25.25,0,0,1,.34,0c1.18.3,2.33.75,3.54,1A31.06,31.06,0,0,0,83,104.12Z"/><path class="cls-25" d="M21.11,57.43c.47.4,1,.1,1.53.2-.32.35-.83.28-1.17.3a.92.92,0,0,1-.94-1c0-1.11,0-2.22,0-3.32,0-.68-.21-.81-.83-.8-1.51,0-3,0-4.53,0a.24.24,0,0,1,.14-.29,25,25,0,0,1,5.12-.1.77.77,0,0,1,.82.62A9.58,9.58,0,0,1,21.11,57.43Z"/><path class="cls-26" d="M129.62,89.5l.2,0c-.64.93-1.26,1.88-1.92,2.79-.16.22-.49.23-.78.23-1.05,0-2.09-.06-3.13,0a1.29,1.29,0,0,1-1.48-1c0-.07.08-.08.13,0a1.8,1.8,0,0,0,1.91.72,4.46,4.46,0,0,1,1.21,0,2.6,2.6,0,0,0,3-1.6A11.4,11.4,0,0,1,129.62,89.5Z"/><path class="cls-27" d="M126.35,83.92c.07.54-.45.74-.69,1.09-.11.17-.41.14-.56-.07-1.32-1.86-2.63-3.72-3.95-5.57a.13.13,0,0,1,.21,0,20.46,20.46,0,0,1,1.84,2.41c.71.85,1.31,1.79,2,2.69.42.57.47.12.64-.07S126,83.84,126.35,83.92Z"/><path class="cls-28" d="M7.53,63.73l-.44,0c.12-.27.37-.13.55-.13H23c.19,0,.43-.13.56.15a3,3,0,0,1-.94.06H8.31A2.06,2.06,0,0,1,7.53,63.73Z"/><path class="cls-29" d="M15.21,50.77c-.41-.15-.38-.5-.38-.84,0-1,0-2.07,0-3.11,0-.29.12-.62-.21-.84-1.14.24-1.2,1-1.19,2,.06,2.68,0,5.35,0,8a2.62,2.62,0,0,1-.19,1.35.25.25,0,0,1-.31.08h0a1.41,1.41,0,0,1-.09-.81v-10a1.6,1.6,0,0,1,.08-.81c.51-.41,1.11-.22,1.66-.2.4,0,.39.39.39.7,0,1.1,0,2.19,0,3.29a1.28,1.28,0,0,0,.2.95.12.12,0,0,1,0,.14C15.25,50.74,15.23,50.77,15.21,50.77Z"/><path class="cls-15" d="M114.72,80.81V80.5c1.57,2,3,4.06,4.45,6.15-.05.08-.11.08-.17,0-.63-.29-.83-1-1.21-1.48-1-1.36-2-2.81-3-4.16C114.71,81,114.73,80.88,114.72,80.81Z"/><path class="cls-30" d="M57.22,104.14l1.77,0c1.7,0,3.39,0,5.08-.1.41,0,.84-.45,1.25,0a9.42,9.42,0,0,1-2.93.4,30.33,30.33,0,0,1-5-.12A.22.22,0,0,1,57.22,104.14Z"/><path class="cls-31" d="M35.58,101.83l-.14,0c-.82-1.27-1.4-2.67-2.09-4A21,21,0,0,1,32,95a.11.11,0,0,1,.16,0c.53,1,1.11,1.94,1.57,3,.59,1.28,1.25,2.53,1.89,3.78A.34.34,0,0,1,35.58,101.83Z"/><path class="cls-9" d="M40.32,80.61a12.69,12.69,0,0,0-.19,4.91,2.18,2.18,0,0,1,.06.84h-.1c-.4-.55-.09-1.17-.19-1.74a8.84,8.84,0,0,1,0-2.41,26.81,26.81,0,0,1,.56-4.56c0-.27.28-.36.45-.52-.13.64-.25,1.29-.41,1.92A5.77,5.77,0,0,0,40.32,80.61Z"/><path class="cls-32" d="M37,80.06c-.24.35-.12.76-.17,1.14-.1,0-.17,0-.21-.08a1.36,1.36,0,0,1-.11-.84,18.09,18.09,0,0,0-.15-4.82c-.06-.59-.37-1.08-.44-1.64,0-.31-.2-.6-.11-.91a.15.15,0,0,1,.22,0,8.94,8.94,0,0,1,.83,3c0,.38-.17.8.14,1.15A14.71,14.71,0,0,1,37,80.06Z"/><path class="cls-27" d="M130.21,78.48c0,.71-.62,1.1-1,1.62-.8,1.2-1.68,2.36-2.53,3.53a.55.55,0,0,1-.38.3c.18-1,1-1.58,1.48-2.39s1.31-1.68,1.86-2.6A2.17,2.17,0,0,1,130.21,78.48Z"/><path class="cls-33" d="M34,69.77a17.19,17.19,0,0,0-4.76-4.15c-.05,0-.06-.12-.09-.18a4.25,4.25,0,0,1,2.13,1.23,12.63,12.63,0,0,1,1.86,1.65A12.33,12.33,0,0,1,34,69.58.11.11,0,0,1,34,69.77Z"/><path class="cls-34" d="M3.8,45.82l-.45,0c.06-.18.22-.18.37-.18H11c.39,0,.91,0,.83.55s.54,1.4-.52,1.66c-.85.28-1.74-.11-2.58.2h0a.11.11,0,0,1-.17,0l-.07,0c-.12-.53.29-.54.61-.59s.92,0,1.38,0,.79-.08.79-.58-.38-.66-.81-.68c-.86-.05-1.72,0-2.59,0h-3A1.49,1.49,0,0,1,3.8,45.82Z"/><path class="cls-35" d="M91.8,65.43a25.43,25.43,0,0,1-2.42-1.15c-1.09-.45-2.22-.75-3.33-1.13a.88.88,0,0,1,.76,0,16,16,0,0,1,5,2.1C91.88,65.3,91.87,65.37,91.8,65.43Z"/><path class="cls-36" d="M33.13,55.91c-.1.5.23,1.06-.21,1.51-.24-1.13-1-1.26-2-1.2a26.39,26.39,0,0,1-3,0c-.86-.06-1.14-.34-1.21-1.19a7.88,7.88,0,0,1,0-1.75c.07-.39.18-.81.75-.68a.24.24,0,0,1,.11.06.2.2,0,0,1-.06.18v0a11,11,0,0,0-.1,2.63c0,.16.14.26.29.33,1.53,0,3.05,0,4.58,0C32.62,55.78,32.92,55.63,33.13,55.91Z"/><path class="cls-9" d="M100.4,75.33v-.47a11.49,11.49,0,0,1,1,2.72,12.29,12.29,0,0,0,.39,1.59,2.34,2.34,0,0,1,.12,1.31h-.14c-.31-1.16-.45-2.36-.82-3.51A12.54,12.54,0,0,1,100.4,75.33Z"/><path class="cls-37" d="M13,57.45l.22,0c1.12-.22,1.3-1,1.21-2a9.39,9.39,0,0,1,0-2.12c.06-.42.15-.9.79-.74a1.09,1.09,0,0,1,0,.18c-.41.52-.15,1.11-.18,1.67,0,.85,0,1.71,0,2.56,0,.33.06.82-.39.77S13.36,58.23,13,57.45Z"/><path class="cls-38" d="M30.71,92.21c-.76-.54-.78-1-.09-1.51a12.11,12.11,0,0,0,3-2.9l0,0a.16.16,0,0,1,.13.07.09.09,0,0,1,0,.12,3.72,3.72,0,0,1-1.45,1.79,9.09,9.09,0,0,1-1.87,1.39.2.2,0,0,0-.05.35C30.65,91.66,30.53,92,30.71,92.21Z"/><path class="cls-39" d="M13,45.81V57.44c-.29-.11-.18-.37-.18-.56q0-5.31,0-10.62C12.8,46.1,12.7,45.88,13,45.81Z"/><path class="cls-40" d="M22.66,63.74l.89,0a15.65,15.65,0,0,1,4.23.84,1.72,1.72,0,0,1,.83.59A6.08,6.08,0,0,1,27,64.59a12.89,12.89,0,0,0-4.3-.75A.09.09,0,0,1,22.66,63.74Z"/><path class="cls-40" d="M133.23,74.3c0,.5-.42.78-.66,1.14-.54.82-1.15,1.6-1.73,2.4-.12.17-.2.4-.47.35a8.42,8.42,0,0,1,1.14-1.7A13,13,0,0,1,133.23,74.3Z"/><path class="cls-41" d="M29.39,103.13c1.93,0,3.85,0,5.78,0,.54,0,.82-.16.72-.74.35.78.31.88-.47.88-1.86,0-3.72,0-5.58,0C29.68,103.27,29.5,103.32,29.39,103.13Z"/><path class="cls-42" d="M20.92,45.8c0,1.34,0,2.67,0,4,0,.29.16.71-.36.78,0-1.32,0-2.64,0-4C20.55,46.3,20.46,45.92,20.92,45.8Z"/><path class="cls-43" d="M122.64,91.51h-.13a5.13,5.13,0,0,1-1.12-1.46,12.63,12.63,0,0,1-1.35-2,.12.12,0,0,1,0-.2A31.58,31.58,0,0,1,122.64,91.51Z"/><path class="cls-44" d="M8.58,48h.17c0,2.86,0,5.72,0,8.58,0,.27.2.61-.19.81Z"/><path class="cls-22" d="M136.12,70.46l-1.18,1.82a4.79,4.79,0,0,0-.74.94c-.13.18-.22.44-.53.37a33.39,33.39,0,0,1,2.27-3.14C136,70.4,136.07,70.4,136.12,70.46Z"/><path class="cls-12" d="M105.1,103.14c1.71,0,3.43,0,5.15,0a1.27,1.27,0,0,0,.92-.29c0,.27-.14.44-.44.43l-5.47,0C105.2,103.25,105.15,103.18,105.1,103.14Z"/><path class="cls-9" d="M33.74,87.94v-.13c-.12-.37.26-.52.33-.81.38-.63.82-1.22,1.14-1.88.08-.15.12-.46.44-.3a.49.49,0,0,1,0,.41A12.38,12.38,0,0,1,34,87.88C34,87.93,33.83,87.92,33.74,87.94Z"/><path class="cls-12" d="M139.79,103.14h6A26.9,26.9,0,0,1,139.79,103.14Z"/><path class="cls-45" d="M73.33,102.83l-.34,0a8.36,8.36,0,0,1-.86-.39,1.79,1.79,0,0,0-2-.19.22.22,0,0,1-.3,0,1.63,1.63,0,0,1,2.23-.08C72.46,102.47,73,102.45,73.33,102.83Z"/><path class="cls-46" d="M140.4,64.41a16.74,16.74,0,0,1-2.13,3.08.13.13,0,0,1,0-.21A14,14,0,0,1,140.4,64.41Z"/><path class="cls-20" d="M33,45.78H25.52A30.86,30.86,0,0,1,33,45.78Z"/><path class="cls-47" d="M40.09,86.37a.17.17,0,0,0,.1,0c.24,1.14.49,2.28.73,3.42l0,.48a9.3,9.3,0,0,1-.71-3.21A2.33,2.33,0,0,0,40.09,86.37Z"/><path class="cls-12" d="M7.35,103.13H13s-.05.11-.08.11q-2.73,0-5.46,0S7.37,103.17,7.35,103.13Z"/><path class="cls-48" d="M102,85.79l0-1A15,15,0,0,0,102,82l0-1a2.53,2.53,0,0,1,.29,1.23C102.2,83.46,102.48,84.65,102,85.79Z"/><path class="cls-49" d="M69.86,102.27h.3a8.43,8.43,0,0,1-2.71,1.15.24.24,0,0,1-.32,0C68,102.9,69,102.69,69.86,102.27Z"/><path class="cls-50" d="M121.36,79.33l-.21,0L119.48,77v-.3A17.78,17.78,0,0,1,121.36,79.33Z"/><path class="cls-51" d="M32.14,95H32a16.87,16.87,0,0,1-1.26-2.47c.73.34.72,1.17,1.12,1.73C32,94.39,32.28,94.63,32.14,95Z"/><path class="cls-25" d="M36.74,81.2h.13a6.21,6.21,0,0,1-.69,2.74A.55.55,0,0,1,36,83.5c.07-.59.29-1.15.35-1.74A.64.64,0,0,1,36.74,81.2Z"/><path class="cls-52" d="M145.72,63.71H141c.06-.19.23-.14.36-.14h4C145.49,63.57,145.65,63.54,145.72,63.71Z"/><path class="cls-28" d="M109.86,63.72h-4.74c.12-.23.33-.13.5-.13h3.75C109.53,63.58,109.76,63.46,109.86,63.72Z"/><path class="cls-53" d="M70.73,65l-2.9-1.28a.22.22,0,0,1,.32,0c.67.39,1.48.42,2.14.85A1.45,1.45,0,0,1,70.73,65Z"/><path class="cls-42" d="M15.21,50.77v-.22l5.35,0c-.23.3-.56.19-.85.19Z"/><path class="cls-25" d="M110.15,64.15V64a7.52,7.52,0,0,1,1.62,2.13.37.37,0,0,1-.18.08A3.72,3.72,0,0,1,110.15,64.15Z"/><path class="cls-54" d="M27.58,48c.21-.33.55-.21.83-.21h4.36c-.31.37-.73.17-1.09.18C30.31,48,29,48,27.58,48Z"/><path class="cls-43" d="M91.8,65.43v-.19A10.57,10.57,0,0,1,94,66.74a.1.1,0,0,1,0,.12s0,0,0,0Z"/><path class="cls-25" d="M36.07,72.87l-.21,0c-.37,0-.26-.4-.39-.6,0-.59-.71-.91-.58-1.55A10.31,10.31,0,0,1,36.07,72.87Z"/><path class="cls-55" d="M86.81,63.14h-.76l-1.42-.29v-.12A4,4,0,0,1,86.81,63.14Z"/><path class="cls-56" d="M111.57,66.16h.2a2,2,0,0,1,.83,1.1l0,.37C112,67.27,111.53,66.9,111.57,66.16Z"/><path class="cls-25" d="M138.24,67.28l0,.21c-.33.5-.55,1.1-1.16,1.37A5.08,5.08,0,0,1,138.24,67.28Z"/><path class="cls-51" d="M25.71,95.54v.15c-.36.07-.24-.26-.34-.4a4.42,4.42,0,0,1-.52-1.18V93.8Z"/><path class="cls-57" d="M27.59,52.84l.06-.18,4,0c-.61.41-1.28.11-1.92.17S28.3,52.83,27.59,52.84Z"/><path class="cls-58" d="M37,80.06V77A6.93,6.93,0,0,1,37,80.06Z"/><path class="cls-59" d="M67.13,103.41h.32a10.57,10.57,0,0,1-2,.55A2.44,2.44,0,0,1,67.13,103.41Z"/><path class="cls-60" d="M72.44,64.26v.17c-.58.18-1,.92-1.73.57.57,0,.86-.56,1.4-.62A1.39,1.39,0,0,0,72.44,64.26Z"/><path class="cls-25" d="M120.06,87.9l0,.2a3.71,3.71,0,0,1-1-1.45h.17Z"/><path class="cls-61" d="M27.79,55.77c-.1-.05-.3-.09-.3-.15a5.58,5.58,0,0,1,.11-2.81C27.67,53.79,27.35,54.8,27.79,55.77Z"/><path class="cls-62" d="M36.15,83.45l0,.49a3.94,3.94,0,0,1-.57,1.29v-.45A1.45,1.45,0,0,1,36.15,83.45Z"/><path class="cls-63" d="M39.9,82.22v2.41A4.29,4.29,0,0,1,39.9,82.22Z"/><path class="cls-25" d="M41.63,75c-.08.49-.11,1-.58,1.32A1.68,1.68,0,0,1,41.63,75Z"/><path class="cls-64" d="M42.33,73.43v.31c-.31.32-.15.94-.69,1.12A3,3,0,0,1,42.33,73.43Z"/><path class="cls-20" d="M136.12,70.46h-.18a1.38,1.38,0,0,1,.88-1A2.21,2.21,0,0,1,136.12,70.46Z"/><path class="cls-54" d="M8.73,48c.83-.4,1.72-.08,2.58-.2C10.47,48.24,9.58,47.88,8.73,48Z"/><path class="cls-43" d="M93.94,66.91v-.17c.32.29.81.39,1,.84h-.26A2.64,2.64,0,0,1,93.94,66.91Z"/><path class="cls-65" d="M34,69.77l0-.19a1.32,1.32,0,0,1,.72,1.16A4.37,4.37,0,0,1,34,69.77Z"/><path class="cls-66" d="M68.15,63.71l-.32,0a3.11,3.11,0,0,1-1-.31C67.27,63.56,67.8,63.22,68.15,63.71Z"/><path class="cls-67" d="M79.92,91.68a.36.36,0,0,0-.3.15,2.38,2.38,0,0,1-2,1q-6.37,0-12.75,0a2.36,2.36,0,0,1-2.32-.91.78.78,0,0,0-.57-.39.6.6,0,0,0-.08-.08c-.34-1-.67-2.07-1-3.1a.83.83,0,0,1-.06-.21,2.43,2.43,0,0,0-.29-1.27,5.54,5.54,0,0,1-.34-2.21,1.94,1.94,0,0,0-.09-.76,6.84,6.84,0,0,1,0-1.63c.18-.67.06-1.37.29-2s0-1.17.29-1.72a15.52,15.52,0,0,1,1.08-3.16.19.19,0,0,1,.21,0,2.31,2.31,0,0,1-.35,1.56c-.32.77-.07,1.55-.29,2.3-.09.33.19.61.62.61,1.55,0,3.11,0,4.66,0,.58,0,.67-.23.4-.77-.55-1.1-.49-3.94.69-4.67.08.05.19.09.2.21a.59.59,0,0,1-.15.28,3.57,3.57,0,0,0,0,3.93c.14.25.31.47.44.73a2.15,2.15,0,0,1,.61,2.73,6,6,0,0,0-.36,2.23,8.2,8.2,0,0,0-.31,1.18,2.27,2.27,0,0,0-.19,1.51.45.45,0,0,1,0,.11.48.48,0,0,1-.07.2c-.36.27-.22.72-.36,1.07-.26.69-.33,1.43-.56,2.14s.09,1.09.86,1.1q3.21,0,6.44,0c.82,0,1-.21.75-1a25.94,25.94,0,0,0-.67-2.9A3.49,3.49,0,0,1,74,86.25,2.07,2.07,0,0,0,73.76,85c-.14-1.33-.56-2.62-.73-4a1.28,1.28,0,0,1,.2-1c.21-.3.56-.48.72-.82a3.84,3.84,0,0,0-1.32-6c-.24-.13-.59-.13-.64-.5a3.92,3.92,0,0,1,2.88,2.18c.18.5.38,1,.54,1.51a.92.92,0,0,1,0,.63c-.38.69-.17,1.51-.52,2.2-.21.42,0,.5.38.5h4.94c.4,0,.6-.22.51-.59a11.81,11.81,0,0,0-.54-2.94c0-.09,0-.23,0-.35.36,0,.36.39.54.59.29.49.26,1.11.59,1.59a2,2,0,0,1,.22,1c0,.68.21,1.34.14,2v4.14a2.43,2.43,0,0,1-.08.76c-.32.44-.19,1-.22,1.45a2.56,2.56,0,0,1-.31,1.21c-.43.95-.65,2-1.08,2.92Z"/><path class="cls-68" d="M72,72.75a4.62,4.62,0,0,1,2.91,2.8A3.86,3.86,0,0,1,74,79.33a.32.32,0,0,1-.1-.19,3.29,3.29,0,0,1,.52-1.32c.74-1.5-.41-3.56-1.65-4.22a3.53,3.53,0,0,0-3.49,0,1.44,1.44,0,0,1-.72.27.25.25,0,0,1-.19-.11,3.39,3.39,0,0,1,2.83-1C71.48,72.71,71.74,72.74,72,72.75Z"/><path class="cls-69" d="M77,69a13.63,13.63,0,0,1,6.47-.36,7.42,7.42,0,0,1,2.45.61.29.29,0,0,1-.27.22c-1.3-.3-2.63-.46-4-.65a12.38,12.38,0,0,0-3.53.39,1.79,1.79,0,0,1-1.12,0A.14.14,0,0,1,77,69Z"/><path class="cls-70" d="M80.59,76.49c-.24-.13-.23-.42-.4-.6a17.26,17.26,0,0,0-2.27-4.31c-.25-.37-.52-.73-.78-1.1a.25.25,0,0,1,.18-.11.85.85,0,0,1,.57.4,20.13,20.13,0,0,1,2.67,4.54,1.55,1.55,0,0,1,.11.56C80.67,76.08,80.8,76.31,80.59,76.49Z"/><path class="cls-50" d="M94.78,76.91a14.58,14.58,0,0,0,.73,2.14A14.45,14.45,0,0,1,96,85.11a.59.59,0,0,1-.22-.44A18.3,18.3,0,0,0,94.71,78c-.16-.43-.55-.8-.39-1.33a.14.14,0,0,1,.21,0Z"/><path class="cls-71" d="M64.87,69c.29.06.67-.07.8.31s-.19.54-.38.78c-.63.79-1.25,1.59-1.87,2.39a.31.31,0,0,1-.12-.27,7.17,7.17,0,0,1,1.39-2.14c.18-.25.43-.48.16-.81a.32.32,0,0,1,0-.19Z"/><path class="cls-72" d="M94.53,76.61h-.16a.2.2,0,0,1-.25-.07c-.65-1-1.4-1.88-2-2.9a.31.31,0,0,1,.08-.29A8.14,8.14,0,0,1,94.53,76.61Z"/><path class="cls-73" d="M88.8,70.58a7,7,0,0,1,2.71,2,.36.36,0,0,1-.29.11,12.22,12.22,0,0,1-2.47-1.94A.24.24,0,0,1,88.8,70.58Z"/><path class="cls-74" d="M47.75,76.17a9.91,9.91,0,0,1,2.28-3,.15.15,0,0,1,.19,0s.06.1,0,.13a29.14,29.14,0,0,1-2.32,3A.31.31,0,0,1,47.75,76.17Z"/><path class="cls-75" d="M63.41,72.14v.33A23.59,23.59,0,0,0,62,75.3l-.12.06a.36.36,0,0,1-.15-.29,8.32,8.32,0,0,1,1.36-2.73A.35.35,0,0,1,63.41,72.14Z"/><path class="cls-30" d="M88.8,70.58a.09.09,0,0,0,0,.11c-.1.17-.25.13-.38.07A25.77,25.77,0,0,0,86,69.63a.42.42,0,0,1-.18-.21l.18-.14A7.22,7.22,0,0,1,88.8,70.58Z"/><path class="cls-71" d="M58.38,68.72a1.5,1.5,0,0,1,.93-.28c1.34,0,2.69-.26,4,.25a.3.3,0,0,1-.17.16c-.56.11-1.1-.17-1.65,0H60.11a3.3,3.3,0,0,0-1,.06A.7.7,0,0,1,58.38,68.72Z"/><path class="cls-76" d="M58.38,68.72c.6.07,1.17-.27,1.77-.13a.35.35,0,0,1-.33.33,15.62,15.62,0,0,1-3.27.38.45.45,0,0,1-.2-.16A5.06,5.06,0,0,1,58.38,68.72Z"/><path class="cls-77" d="M50.24,73.18l-.21,0a8.22,8.22,0,0,1,2.06-1.84.21.21,0,0,1,.18.21A8.3,8.3,0,0,1,50.24,73.18Z"/><path class="cls-25" d="M52.25,71.46l-.16-.15a4.49,4.49,0,0,1,1.69-1c.14-.07.18,0,.2.13A3.57,3.57,0,0,1,52.25,71.46Z"/><path class="cls-69" d="M77.38,70.45l-.24,0-.55-.59c-.19-.34-.4-.69.24-.79C76.94,69.58,77.39,69.92,77.38,70.45Z"/><path class="cls-21" d="M47.75,76.17l.2,0a3,3,0,0,1-.72,1.6.21.21,0,0,1-.2,0l0-.28A4.54,4.54,0,0,1,47.75,76.17Z"/><path class="cls-57" d="M56.35,69.14l.17,0c-.17.71-.81.57-1.3.72a.43.43,0,0,1-.31-.16C55.32,69.35,55.88,69.36,56.35,69.14Z"/><path class="cls-78" d="M54.91,69.72l.35,0a1.44,1.44,0,0,1-1.31.68l-.17-.12A1.93,1.93,0,0,1,54.91,69.72Z"/><path class="cls-31" d="M91.19,72.6h.32l.7.75,0,.29A1.31,1.31,0,0,1,91.19,72.6Z"/><path class="cls-71" d="M63.3,68.69c.53.09,1.1-.09,1.57.3l-.06.07c-.35.23-.71,0-1.06,0a1.08,1.08,0,0,1-.43-.1.19.19,0,0,1-.09-.19Z"/><path class="cls-30" d="M68.39,73.72l.21,0a.78.78,0,0,1-.74.76.18.18,0,0,1-.16-.19C68,74.2,68.06,73.81,68.39,73.72Z"/><path class="cls-70" d="M76.91,69.16c-.62,0-.31.44-.32.73a.48.48,0,0,1-.23-.65c.14-.27.43-.22.68-.21v.1A.08.08,0,0,1,76.91,69.16Z"/><path class="cls-79" d="M62,91.52a18.25,18.25,0,0,0,3.42,5.37c.49.53.41.82-.25,1a15.88,15.88,0,0,1-7.28.31,15.35,15.35,0,0,1-11.28-9.93,2.53,2.53,0,0,1-.08-.48.24.24,0,0,1,.2-.06c.54.44.56,1.14.83,1.71A15.18,15.18,0,0,0,55,96.78c2.58,1.22,5.3,1.25,8,1.11a9.62,9.62,0,0,0,1.53-.35c.46-.11.49-.3.17-.68a21.17,21.17,0,0,1-3.85-7,3,3,0,0,1-.2-1.33.68.68,0,0,1,.11-.31.13.13,0,0,1,.2,0h0c.27,1.11.71,2.18,1,3.29Z"/><path class="cls-80" d="M77.9,95.68a6.54,6.54,0,0,1-1.32,1.72,11.27,11.27,0,0,0,2.91.72c.88,0,1.77,0,2.65,0a7,7,0,0,0,3.13-.56,1.58,1.58,0,0,1,.49,0,.41.41,0,0,1,.48,0,14.38,14.38,0,0,1-6.17.8,15.43,15.43,0,0,1-3.16-.51c-.67-.19-.73-.35-.27-.87s.73-.87,1.1-1.31A.1.1,0,0,1,77.9,95.68Z"/><path class="cls-81" d="M77.9,95.68h-.16a31.17,31.17,0,0,0,2.08-3.58,2.73,2.73,0,0,0,.1-.41h0a23.4,23.4,0,0,0,1-3,2.1,2.1,0,0,0,.28-1.12c.15-.47,0-1,.26-1.46l0-.67q.11-.12.18,0a1.13,1.13,0,0,1,0,.68,14.88,14.88,0,0,1-2,7A11,11,0,0,1,77.9,95.68Z"/><path class="cls-82" d="M92.5,93a16.37,16.37,0,0,0,3-5.88c.26.05.19.25.15.39a13.82,13.82,0,0,1-3,5.51A.14.14,0,0,1,92.5,93Z"/><path class="cls-9" d="M92.5,93l.2,0a12.12,12.12,0,0,1-4.62,3.72.06.06,0,0,1,0-.08s0,0,0,0A25.71,25.71,0,0,0,91,94.4C91.49,93.91,92,93.43,92.5,93Z"/><path class="cls-30" d="M47,77.75h.16a.49.49,0,0,1,0,.41,20,20,0,0,0-.82,4,.58.58,0,0,1-.23.43.18.18,0,0,1-.22,0A11.61,11.61,0,0,1,47,77.75Z"/><path class="cls-57" d="M45.92,82.63H46c.43.54.22,1.2.33,1.79.16.89.17,1.8.4,2.68a.74.74,0,0,1-.09.69h-.17A13.85,13.85,0,0,1,45.92,82.63Z"/><path class="cls-83" d="M88.07,96.56a.57.57,0,0,0,0,.13,5.76,5.76,0,0,1-1.84.87l-.48,0Z"/><path class="cls-84" d="M95.54,86.9A15.64,15.64,0,0,1,96,84.65l0,.46C95.94,85.73,96.1,86.41,95.54,86.9Z"/><path class="cls-85" d="M145.56,63.85c.27.17.15.44.15.66q0,18.8,0,37.61c0,.6-.18.76-.77.75-1.38,0-2.77-.06-4.15,0-.72,0-.93-.17-.93-.91q0-10.6,0-21.21c0-1.48,0-3,0-4.44,0-.25.14-.74-.44-.45,0-.21.17-.27.36-.23s.21.24.21.4v2.15c0,1.88,0,3.76,0,5.65,0,.54.17.69.7.68,1.38,0,2.76,0,4.14,0,.59,0,.78-.15.77-.76,0-3.09,0-6.19,0-9.29Z"/><path class="cls-86" d="M111.44,75.89c-.19-.09-.41-.27-.44.13,0,.24,0,.48,0,.72q0,12.57,0,25.15c0,1,0,1-1,1-1.34,0-2.68,0-4,0-.64,0-.83-.15-.83-.83q0-17.76,0-35.53c0-.79,0-1.58,0-2.36.26,0,.3.23.31.41a16.34,16.34,0,0,1,0,2.71.46.46,0,0,1-.17.31c0,4.08,0,8.16,0,12.23,0,1.77.26,3.54.42,5.31,0,.47.32.69.83.68,1.22,0,2.43,0,3.65,0,.55,0,.68-.19.67-.7,0-3,0-5.92,0-8.87,0-.22-.11-.51.23-.6S111.42,75.68,111.44,75.89Z"/><path class="cls-87" d="M105.28,67.58c0-.92,0-1.84,0-2.76,0-.23.08-.48-.12-.67-.05-.35.2-.32.41-.32,1.33,0,2.67,0,4,0a.69.69,0,0,1,.58.33l1.42,2a6.59,6.59,0,0,0,1,1.46l2,2.86c.12.41.51.63.72,1h0a1.61,1.61,0,0,0,.59.85h0c0,.19,0,.38,0,.57,0,.88,0,.88-.89.88h-8.16c-.83,0-1-.24-1.14-1.1a32.24,32.24,0,0,1-.28-4.61C105.42,67.87,105.43,67.7,105.28,67.58Z"/><path class="cls-88" d="M36.15,83.45l-.55,1.33a12.89,12.89,0,0,1-1.41,2.3,2.19,2.19,0,0,0-.59.73h0a8.46,8.46,0,0,0-2.2,1.54,3.82,3.82,0,0,1-2.34.9q-10.35,0-20.71,0c-.7,0-.88-.2-.87-.88,0-2.58,0-5.16,0-7.74a1.28,1.28,0,0,1,1-.22h3.06a.82.82,0,0,0,.93-.77,23.34,23.34,0,0,0,.15-3.34c0-.3-.15-.74.4-.8a.85.85,0,0,1,.16.53c0,2.59.05,5.18,0,7.77A10,10,0,0,0,13,87.36c0,.44.29.4.59.39,2.51,0,5,0,7.52,0a6.61,6.61,0,0,1,1.72.1c.49.13.79-.34,1.25-.42A5.78,5.78,0,0,0,27,86.16l.16-.14a4,4,0,0,0,1.72-1.58,1.7,1.7,0,0,1,.47-.62,1,1,0,0,0,.51-.85.75.75,0,0,1,.09-.3,9.79,9.79,0,0,0,.46-7,3.45,3.45,0,0,0-.38-.77,1.74,1.74,0,0,1-.11-.18c0-.52-.57-.87-.51-1.43A2.85,2.85,0,0,1,31,74.9c.11.2.16.41.41.41h4.88c-.76-1-.45-2.09-.82-3l.39.6a17.88,17.88,0,0,1,1,4.62c.08,1.24-.11,2.46-.1,3.69Z"/><path class="cls-89" d="M13,76.47c-.26.2-.15.48-.16.73a25.46,25.46,0,0,1-.13,3.49c-.13.67-.35,1-1.1,1-1.35-.06-2.71,0-4.07,0V74.32c1.38,0,2.75,0,4.13,0a.78.78,0,0,0,.91-.75,14.68,14.68,0,0,0,.26-3c0-.24-.12-.53.16-.72a1.07,1.07,0,0,1,.19.81v5A1.07,1.07,0,0,1,13,76.47Z"/><path class="cls-49" d="M26.82,71.15a10.63,10.63,0,0,0-5.61-1.28c-2.42.06-4.83,0-7.24,0-.48,0-.59.14-.59.59q0,8.18,0,16.34c0,.45.13.55.56.55,3,0,6,.06,9,0a7.63,7.63,0,0,0,4.58-1.82c.16-.13.26-.36.53-.29l0,.09c-.1.4-.46.55-.76.75h0a7.92,7.92,0,0,1-3.19,1.49,8.44,8.44,0,0,1-2.73.25H13.92c-.92,0-1.05-.12-1-1A7.1,7.1,0,0,1,13,84.92q0-4.22,0-8.45V69.9h0a.65.65,0,0,1,.72-.45c2.89,0,5.78-.08,8.67,0a7.68,7.68,0,0,1,4.06,1.14C26.46,70.87,26.86,70.84,26.82,71.15Z"/><path class="cls-89" d="M26.42,70.62a11.52,11.52,0,0,0-3.68-1l-9.14,0a.75.75,0,0,0-.63.28c-.07-.45.16-.6.57-.6,2.95,0,5.9-.1,8.84,0a7.71,7.71,0,0,1,3.64.89C26.18,70.34,26.36,70.41,26.42,70.62Z"/><path class="cls-3" d="M22.66,63.74a.86.86,0,0,1,.07.1l-6.65,0c-2.87,0-5.73,0-8.6,0a.37.37,0,0,1,0-.11Z"/><path class="cls-21" d="M30,74.76a12.86,12.86,0,0,0-2.58-3.16c.55,0,.75.44,1.07.73s.6.66.91,1S30.12,74.15,30,74.76Z"/><path class="cls-9" d="M102,82a6.93,6.93,0,0,1,0,2.76Z"/><path class="cls-90" d="M27.54,52.6a.37.37,0,0,0-.37.21,1.15,1.15,0,0,0-.09.44c.07,3.23-.52,2.68,2.49,2.73.64,0,1.29,0,1.93,0,1.44,0,1.44,0,1.42,1.44l-6.72.06c-.69,0-.6-.44-.6-.87q0-5.2,0-10.41c.21-.28.52-.27.83-.27,1.91,0,3.81,0,5.72,0,.55,0,.83.12.84.76s-.29.83-.89.82c-1.29,0-2.58,0-3.87,0-.73,0-1.06.28-1.05,1,.06,2.8-.39,2.47,2.42,2.48a10.27,10.27,0,0,0,1.11,0c.56,0,.82.11.81.76s-.29.73-.84.74A14.79,14.79,0,0,0,27.54,52.6Z"/><path class="cls-91" d="M3.8,45.82c2.27,0,4.55,0,6.82,0,.7,0,1,.19,1,.93s-.42.86-1,.84-.93,0-1.39,0c-.29,0-.65-.07-.71.38a13.24,13.24,0,0,0-.1,3c0,1.84,0,3.69,0,5.54,0,.7-.16,1-.92,1s-.87-.29-.86-.94c0-2.65,0-5.29,0-7.94,0-.81-.26-1.13-1.07-1a12,12,0,0,1-1.2,0c-.37,0-.84,0-.93-.39S3.17,46.16,3.8,45.82Z"/><path class="cls-92" d="M15.19,52.6c-.54,0-.52.41-.52.79,0,.88,0,1.76,0,2.65,0,1.47,0,1.47-1.51,1.39,0-3.37,0-6.75,0-10.12,0-1.46,0-1.46,1.47-1.33,0,1.32.05,2.65,0,4,0,.72.2,1.07,1,1.1,1.53.05,3.06.06,4.6,0,.67,0,.92-.3.9-1,0-1.14,0-2.28,0-3.41,0-.57.19-.74.75-.74s.74.17.74.74c0,3.35,0,6.7,0,10,0,1.28-1,.52-1.47.72,0-1.35-.05-2.7,0-4.06,0-.6-.23-.82-.81-.82C18.57,52.58,16.88,52.59,15.19,52.6Z"/><path class="cls-4" d="M115.9,72.3c-.54,0-.61-.41-.59-.85A1.8,1.8,0,0,1,115.9,72.3Z"/><path class="cls-4" d="M115.31,71.45c-.34-.25-.73-.47-.72-1A2.57,2.57,0,0,1,115.31,71.45Z"/><path class="cls-3" d="M33.6,87.81c-.07-.47.25-.61.59-.73l-.45.73Z"/><path class="cls-3" d="M74.46,87.79c.38.31.34.8.38,1.19a8.9,8.9,0,0,0,.55,2.16c.15.41-.27.8-.89.81H67.8c-1,0-1.28-.23-1.06-1.17a9.44,9.44,0,0,1,.67-2.43l.09.09a5.07,5.07,0,0,1,0,1.23c0,.12,0,.23-.1.35-.4,1-.26,1.21.81,1.21h5.57c1.16,0,1.16,0,.92-1.12,0-.54-.24-1-.25-1.58C74.41,88.28,74.31,88,74.46,87.79Z"/><path class="cls-93" d="M68.45,79.62c1,.41.94.45.74,1.56s-.35,2.28-.62,3.4a7.85,7.85,0,0,1-.72,2.65h0A2.52,2.52,0,0,1,68,85.64a2.06,2.06,0,0,1,.28-1.16,17.16,17.16,0,0,1,.61-3c.15-.51.24-1.2-.49-1.54a.31.31,0,0,1-.15-.3A.11.11,0,0,1,68.45,79.62Z"/><path class="cls-94" d="M81.62,86.08v-.75c-.14-1.13.08-2.27-.06-3.4a3.17,3.17,0,0,0-.06-.92c.12-.67-.25-1.29-.16-2a.44.44,0,0,1,.28.44,33.27,33.27,0,0,1,.31,5.28A2.39,2.39,0,0,1,81.62,86.08Z"/><path class="cls-95" d="M68.45,79.62h-.18c-.16.06-.19-.08-.27-.15a4.1,4.1,0,0,1-.88-3.78c.12-.41.19-.87.63-1.1a5.26,5.26,0,0,0-.45,2.85A4.5,4.5,0,0,0,68.45,79.62Z"/><path class="cls-3" d="M73.43,80c-.51.69-.17,1.44,0,2.11a15.45,15.45,0,0,1,.5,2.94l-.11,0a12.41,12.41,0,0,1-.66-2.88,8.1,8.1,0,0,1-.31-1.38c0-.35,0-.67.39-.82A.45.45,0,0,1,73.43,80Z"/><path class="cls-3" d="M68,79.48l.27.15c1,.67.84,1.52.51,2.5a20.4,20.4,0,0,0-.49,2.35,7.67,7.67,0,0,1,.5-3c.17-.51.28-1.13-.41-1.48A.65.65,0,0,1,68,79.48Z"/><path class="cls-96" d="M74.46,87.79c0,.78.4,1.5.28,2.29,0,.06-.07.07-.12,0-.37-1.13-.45-2.32-.71-3.47,0-.14,0-.32.1-.44s.11,0,.14.06A3.27,3.27,0,0,0,74.46,87.79Z"/><path class="cls-32" d="M60.84,88.21v.31c-.36,0-.43-.26-.47-.52a10.73,10.73,0,0,1-.31-2.83c.07-.42-.13-.9.23-1.28a20.57,20.57,0,0,0,.41,3A2.54,2.54,0,0,1,60.84,88.21Z"/><path class="cls-76" d="M61.83,75l0,.35c-.33,1-.66,2.11-1,3.16a.45.45,0,0,1-.18-.3,7.2,7.2,0,0,1,.87-3A.28.28,0,0,1,61.83,75Z"/><path class="cls-3" d="M81.49,81a16.46,16.46,0,0,1,.12,4.32l-.12.07Z"/><path class="cls-3" d="M80.92,88.65a6.86,6.86,0,0,1-1,3,1.3,1.3,0,0,1,.22-1C80.56,90.11,80.42,89.26,80.92,88.65Z"/><path class="cls-3" d="M62,91.52a11.94,11.94,0,0,1-1-3.29A12.55,12.55,0,0,1,62,91.52Z"/><path class="cls-97" d="M60.28,83.89l0,1.32c-.31,0-.32-.26-.34-.46a18.72,18.72,0,0,1,0-2.7.43.43,0,0,1,.29-.45c.19.2.11.43.06.65Z"/><path class="cls-98" d="M60.28,82.25l0-.6a2,2,0,0,1,.27-2.2.94.94,0,0,1,0,.77Z"/><path class="cls-49" d="M80.48,75.86A2.38,2.38,0,0,1,81,77.25c0,.27-.05.56.15.79-.49-.4-.36-1.05-.6-1.55C80.56,76.28,80.52,76.07,80.48,75.86Z"/><path class="cls-99" d="M60.56,80.22v-.74c-.32-.68-.26-1,.28-1.3l0,.34C60.76,79.09,60.66,79.66,60.56,80.22Z"/><path class="cls-3" d="M68,85.64c.12.54-.27,1-.15,1.58C67.68,86.67,67.49,86.12,68,85.64Z"/><path class="cls-3" d="M60.84,88.21a2.93,2.93,0,0,1-.15-1.28c.51.34.21.86.28,1.3Z"/><path class="cls-3" d="M81.46,86.07a3.47,3.47,0,0,1-.26,1.46C81.32,87.05,80.89,86.47,81.46,86.07Z"/><path class="cls-100" d="M73.43,80l-.06,0H73.3s-.06,0,0-.08l0,0c0-.43.5-.47.72-.73v.15C74,79.72,73.62,79.78,73.43,80Z"/><path class="cls-3" d="M67.85,87.37v.44c-.19.15,0,.54-.4.58l0,0C67.5,88,67.2,87.47,67.85,87.37Z"/><path class="cls-3" d="M74.15,86.25a.22.22,0,0,0-.11,0,1.11,1.11,0,0,1-.18-1.12l0,0C74.35,85.37,74.11,85.84,74.15,86.25Z"/><path class="cls-101" d="M64.83,69.14c-.4,0-.83.13-1.15-.26.4-.06.75.16,1.13.18A.19.19,0,0,1,64.83,69.14Z"/><path class="cls-102" d="M63.26,68.85a3.2,3.2,0,0,1-1.73-.26,8.28,8.28,0,0,1,1.71.18A.19.19,0,0,1,63.26,68.85Z"/><path class="cls-3" d="M13,84.92c0,.67,0,1.34,0,2,0,.47.16.7.66.7,3.15,0,6.31,0,9.46,0a7.32,7.32,0,0,0,3.49-1.16c.21-.13.38-.37.68-.37-.44.82-1.31,1-2.05,1.3s-1.33.17-1.87.65a.61.61,0,0,1-.41.07c-3.16-.29-6.33-.07-9.5-.11-.3,0-.59,0-.6-.3A7.22,7.22,0,0,1,13,84.92Z"/><path class="cls-94" d="M30,82.47a10,10,0,0,0,0-7.72,2.68,2.68,0,0,1,.87,1.9,11.16,11.16,0,0,1,0,3.91A5.27,5.27,0,0,1,30,82.78.24.24,0,0,1,30,82.47Z"/><path class="cls-49" d="M30,82.47v.31L30,83c-.15.33-.24.7-.6.88l-.41.54c-.25.36-.41.82-1,.77h0c.24-.66.9-1,1.26-1.59A5,5,0,0,1,30,82.47Z"/><path class="cls-3" d="M28,85.21c.48-.06.59-.59,1-.77a2.56,2.56,0,0,1-1.71,1.62C27.44,85.72,27.91,85.62,28,85.21Z"/><path class="cls-3" d="M29.39,83.9,30,83C30,83.47,29.88,83.81,29.39,83.9Z"/><path class="cls-103" d="M74.62,90.1l.12,0c.42,1.25.42,1.25-.88,1.25H68c-1,0-1-.07-.84-1a1.19,1.19,0,0,1,.25-.66c0-.07.1-.06.13,0,.21.4-.35.57-.28,1s0,.47.42.46c2.17,0,4.34,0,6.51,0,.4,0,.67-.07.42-.57A1,1,0,0,1,74.62,90.1Z"/><path class="cls-25" d="M73.86,85.08,74,86.2c-.05.14,0,.32-.13.43-.21-.87-.41-1.74-.61-2.62a16.61,16.61,0,0,0-.53-2.48,3.17,3.17,0,0,1,0-1.34c0-.32.31-.29.55-.28V80c-.27.18-.48.39-.39.76C73.23,82.21,73.54,83.65,73.86,85.08Z"/><path class="cls-49" d="M67.54,89.66h-.13c0-.42,0-.84,0-1.26.18-.17.07-.53.4-.58C68,88.47,67.46,89,67.54,89.66Z"/></svg>